# xmcd
#
# Track frame offsets: 
#        182
#        12457
#        25192
#        34932
#        48145
#        57742
#        70267
#        86222
#        97887
#        112395
#        124360
#        136972
#        150280
#
# Disc length: 2151 seconds
#
# Revision: 0
# Processed by: cddbd v1.4PL0 Copyright (c) Steve Scherf et al.
# Submitted via: ExactAudioCopy v0.90a11
#
DISCID=b408650d
DTITLE=The Golden Gate Quartet - Jazzworks
DYEAR=1900
DGENRE=
TTITLE0=Joshua Fit Battle Of Jericho
TTITLE1=Jezebel
TTITLE2=Blind Barnabus
TTITLE3=Bones, Bones, Bones
TTITLE4=Handwriting On The Wall
TTITLE5=Hold The Wind
TTITLE6=Swing Down, Chariot
TTITLE7=God Told Nicodemus
TTITLE8=Hush!
TTITLE9=Shadrack
TTITLE10=My Time Done Come
TTITLE11=Listen To The Lambs
TTITLE12=Did't It Rain?
EXTD=
EXTT0=
EXTT1=
EXTT2=
EXTT3=
EXTT4=
EXTT5=
EXTT6=
EXTT7=
EXTT8=
EXTT9=
EXTT10=
EXTT11=
EXTT12=
PLAYORDER=
